# xmcd CD database file
#
# Track frame offsets:
#	150
#	21761
#	42054
#	58811
#	78134
#	95906
#	117124
#	137787
#	158660
#	177642
#	197595
#	220501
#	243954
#	260994
#
# Disc length: 3704 seconds
#
# Revision: 0
# Processed by: cddbd v1.5.2PL0 Copyright (c) Steve Scherf et al.
# Submitted via: CDex 1.70beta2
#
DISCID=c00e760e
DTITLE=Peter Cincotti - East Of Angel Town
DYEAR=2007
DGENRE=Jazz
TTITLE0=Angel Town
TTITLE1=Goodbye Philadelphia
TTITLE2=Be Careful
TTITLE3=Cinderella Beautiful
TTITLE4=Make It Out Alive
TTITLE5=December Boys
TTITLE6=U B U
TTITLE7=Another Falling Star
TTITLE8=Broken Children
TTITLE9=Man On A Mission
TTITLE10=Always Watching You
TTITLE11=Witch's Brew
TTITLE12=The Country Life
TTITLE13=Love Is Gone
EXTD=YEAR: 2007
EXTT0=
EXTT1=
EXTT2=
EXTT3=
EXTT4=
EXTT5=
EXTT6=
EXTT7=
EXTT8=
EXTT9=
EXTT10=
EXTT11=
EXTT12=
EXTT13=
PLAYORDER=
